<svg xmlns="http://www.w3.org/2000/svg" width="38.000000pt" height="38.000000pt" viewBox="0 0 387 383" version="1.1">
<path d="M 2 1.559 C 2 1.866, 30.169 42.816, 64.598 92.559 L 127.197 183 186.598 183 C 233.456 183, 245.999 182.736, 245.995 181.750 C 245.992 181.063, 241.829 174.552, 236.745 167.283 C 231.660 160.014, 203.677 119.627, 174.560 77.533 L 121.620 1 61.810 1 C 28.915 1, 2 1.251, 2 1.559 M 233.634 45.541 L 202.788 90.081 205.557 94.291 C 212.013 104.103, 260.386 173.630, 261.711 175 C 263.490 176.842, 260.378 180.897, 289.724 138.500 C 302.668 119.800, 328.995 81.809, 348.227 54.077 C 367.460 26.344, 383.425 3.056, 383.705 2.327 C 384.124 1.234, 373.673 1, 324.348 1 L 264.481 1 233.634 45.541 M 101.424 236.250 C 20.755 352.489, 2.701 378.617, 2.266 379.748 C 1.885 380.742, 14.125 381, 61.671 381 L 121.556 381 137.643 357.750 C 179.922 296.646, 238.726 211.865, 242.618 206.398 C 245.008 203.043, 246.672 200.005, 246.315 199.648 C 245.958 199.292, 219.029 199, 186.471 199 L 127.275 199 101.424 236.250 M 252.203 220.250 C 210.326 280.556, 203 291.192, 203 291.683 C 203 291.989, 216.835 312.210, 233.745 336.620 L 264.491 381 324.796 381 L 385.101 381 380.686 374.750 C 376.955 369.469, 327.202 297.714, 277.026 225.250 C 269.695 214.662, 263.337 206, 262.897 206 C 262.458 206, 257.645 212.412, 252.203 220.250" stroke="none" fill="#1d84ca" fill-rule="evenodd"/>
</svg>